<svg width="147" height="33" viewBox="0 0 147 33" fill="none" xmlns="http://www.w3.org/2000/svg">
<path d="M30.1973 14.0661C30.1973 14.0221 30.1821 13.9927 30.1364 13.978C29.8772 13.5671 29.6333 13.1561 29.2523 12.8331L29.2065 12.8478L29.237 12.8331C29.0389 12.4075 28.734 12.0698 28.3529 11.6295C28.3529 12.0992 28.3529 12.4221 28.3529 12.7597C28.3529 16.4881 28.3529 20.2311 28.3529 23.9594C28.2157 24.1943 28.5663 24.6933 28.0023 24.6933C26.8286 24.6787 25.6701 24.7961 24.4964 24.6199C24.4964 18.6164 24.4964 12.613 24.4964 6.60945C24.4964 6.52138 24.4964 6.43331 24.4964 6.33056C24.4354 5.7581 24.6793 5.56728 25.3043 5.59664C26.7371 5.65535 28.17 5.64067 29.6029 5.65535C29.6943 5.87553 29.8163 6.06635 30.0297 6.19846C30.1973 6.55074 30.4412 6.85899 30.7309 7.13788H30.7461C30.9748 7.5342 31.2186 7.93052 31.5692 8.25344C31.5845 8.37087 31.6455 8.45894 31.7674 8.50298C31.8284 8.73783 31.9808 8.8993 32.1637 9.06076C32.2095 9.26626 32.3466 9.39837 32.5143 9.53047L32.5296 9.55983C32.5753 9.70661 32.6668 9.82404 32.8039 9.89743C33.0021 10.1616 33.2003 10.4405 33.4137 10.7047C33.5356 10.9543 33.6728 11.1891 33.9015 11.38C34.0539 11.7176 34.2673 11.9965 34.5417 12.246C34.5417 12.246 34.5417 12.2607 34.5569 12.2607C34.6484 12.4662 34.7551 12.6423 34.9532 12.7744C34.9837 12.8038 35.0142 12.8478 35.0447 12.8772C35.0752 13.0239 35.1666 13.1414 35.3038 13.2294C35.502 13.5964 35.7459 13.934 36.0508 14.2423C36.0812 14.4184 36.1727 14.5505 36.3404 14.6386C36.3861 14.6973 36.4166 14.7413 36.4623 14.8C37.0568 15.6367 37.6513 16.4734 38.3677 17.4862C38.4135 16.9431 38.4592 16.6202 38.3525 16.2972C38.3677 13.0239 38.3677 9.75065 38.383 6.47735C38.383 5.61132 38.383 5.61132 39.3128 5.61132C40.2274 5.61132 41.1572 5.626 42.0718 5.626C42.0871 5.86085 42.1023 6.09571 42.1328 6.33056C42.1176 7.3287 42.1023 8.32684 42.1023 9.33965C42.1023 14.0074 42.1023 18.6752 42.1023 23.3429C42.1023 23.7246 42.1328 24.1209 42.1481 24.5025C41.9804 24.7667 41.6908 24.6933 41.4469 24.6933C40.6237 24.6933 39.8006 24.6787 38.9927 24.708C38.5659 24.7227 38.2915 24.5906 38.0629 24.253C37.6361 23.6658 37.1635 23.0934 36.7215 22.5209L36.7062 22.5062C36.3099 21.8897 35.8831 21.3026 35.3801 20.7742C34.4197 19.4384 33.4746 18.088 32.3619 16.8697C32.3162 16.811 32.2704 16.767 32.2095 16.7082C31.6302 15.7395 30.9138 14.9028 30.1973 14.0661Z" fill="black"/>
<path d="M84.8291 13.0238C84.8444 13.1119 84.8596 13.2 84.8749 13.3027C84.8444 13.4495 84.8749 13.5963 84.9663 13.7137C84.9663 14.5357 84.9816 15.3577 84.9816 16.1797C84.9358 16.4146 84.9053 16.6347 84.8596 16.8696C84.8444 16.9577 84.8444 17.0457 84.8291 17.1485C84.7529 17.2219 84.7224 17.3099 84.7682 17.4274C84.7529 17.5154 84.7224 17.6035 84.7072 17.7063C84.509 18.0439 84.4176 18.4255 84.3261 18.7925C84.2956 18.8952 84.2499 18.998 84.2194 19.1007C84.0212 19.3209 83.8841 19.5851 83.8231 19.864C83.5792 20.231 83.3353 20.5832 83.0914 20.9502L83.1219 20.9796L83.1066 20.9502C82.8628 21.1557 82.6189 21.3759 82.4817 21.6841C82.4055 21.7575 82.3445 21.8309 82.2683 21.9043C82.1311 21.963 82.0091 22.0511 81.9787 22.2126C81.6433 22.4915 81.3232 22.7557 80.9878 23.0346C80.6677 23.152 80.3934 23.3281 80.1647 23.5777C79.6007 23.8419 79.0215 24.1061 78.4575 24.3703C78.2441 24.385 78.0611 24.4143 77.8935 24.5611C77.3752 24.6785 76.8569 24.7813 76.3387 24.8987C76.0948 24.8547 75.8509 24.884 75.6375 24.9868C75.1192 24.9868 74.5857 24.9868 74.0674 24.9868C73.8845 24.9134 73.7016 24.8694 73.5034 24.9281C73.3205 24.8987 73.1223 24.8694 72.9394 24.84C72.8632 24.7519 72.7717 24.7373 72.6498 24.7813C72.3602 24.7079 72.0858 24.6492 71.7962 24.5758C71.3846 24.385 70.973 24.2235 70.531 24.1354C70.2718 23.9446 69.9975 23.7978 69.6926 23.7098C69.5402 23.5336 69.342 23.4162 69.1133 23.3428C68.7932 23.1079 68.4579 22.8731 68.1378 22.6382C67.9853 22.4181 67.8024 22.2272 67.5585 22.1098C67.3451 21.875 67.1165 21.6401 66.9031 21.4052C66.7964 21.1997 66.6744 21.0383 66.4915 20.9062L66.461 20.8768C66.3696 20.6126 66.2171 20.3777 66.0037 20.2016C65.7903 19.7906 65.5922 19.3796 65.3788 18.9686C65.3788 18.8218 65.333 18.6897 65.1958 18.6016C65.1501 18.4549 65.1196 18.3081 65.0739 18.1613C65.1044 18.0439 65.0586 17.9705 64.9824 17.8971C64.9215 17.6182 64.8605 17.354 64.7995 17.0751C64.83 16.9723 64.8148 16.8843 64.7233 16.7962C64.7233 16.5173 64.7538 16.2384 64.6318 15.9742C64.6318 15.4311 64.6471 14.8733 64.6471 14.3302C64.7081 13.8752 64.7843 13.4201 64.8452 12.9651C64.9367 12.8477 64.9824 12.7156 64.9519 12.5541C65.0586 12.378 65.1349 12.2018 65.1196 11.9963C65.2111 11.9229 65.2416 11.8349 65.2111 11.7321C65.4855 11.189 65.7446 10.6459 66.019 10.1028C66.0799 10.0147 66.1257 9.92666 66.1866 9.83859C66.3543 9.60373 66.5372 9.36888 66.7049 9.13402C67.1317 8.67899 67.5585 8.22395 67.9853 7.7836C68.275 7.56342 68.5646 7.35792 68.839 7.13774C69.0066 7.09371 69.1134 7.00564 69.1438 6.8295C69.5249 6.80014 69.8145 6.57996 70.1042 6.38914C70.2261 6.31575 70.3633 6.25704 70.4852 6.18364C70.973 6.02218 71.4608 5.86072 71.9486 5.68457C72.0401 5.65522 72.1315 5.61118 72.2382 5.58182C72.3754 5.56715 72.5278 5.53779 72.665 5.52311C72.7565 5.49375 72.8632 5.47907 72.9546 5.44972C74.2351 5.2589 75.5155 5.28825 76.7959 5.44972C76.9179 5.55247 77.0551 5.5965 77.2228 5.55247C77.4514 5.61118 77.6953 5.66989 77.9239 5.72861C78.0002 5.81668 78.0916 5.84604 78.2136 5.81668C78.3508 5.86072 78.5032 5.91943 78.6404 5.96347C78.7014 6.06621 78.7928 6.11025 78.9148 6.09557C79.4788 6.38914 80.0428 6.68271 80.6068 6.97628C80.8507 7.15242 81.0793 7.32857 81.3232 7.50471C81.3994 7.56342 81.4604 7.60746 81.5366 7.66617C81.6585 7.85699 81.811 8.00378 82.0244 8.09185C82.1158 8.25331 82.2378 8.4001 82.4207 8.47349C82.5122 8.72302 82.6798 8.89916 82.9085 9.04595C83.1829 9.44227 83.4725 9.83859 83.7469 10.2349C83.8078 10.4844 83.9298 10.7046 84.1279 10.8808C84.1737 11.1743 84.2956 11.4385 84.4633 11.6881C84.5395 12.0697 84.6767 12.5394 84.8291 13.0238ZM80.7287 15.0935C80.7287 11.8789 78.0307 9.23677 74.7838 9.23677C71.4456 9.23677 68.7323 11.9083 68.7475 15.1522C68.7628 18.2787 71.4913 20.8768 74.7381 20.8915C78.0459 20.9062 80.7439 18.2934 80.7287 15.0935Z" fill="black"/>
<path d="M100.133 19.3065C100.179 19.4974 100.331 19.6001 100.469 19.7175C100.667 20.0992 100.926 20.4221 101.246 20.701C101.307 20.7744 101.368 20.8625 101.414 20.9358C102.343 22.1542 103.258 23.3725 104.264 24.6935C102.618 24.6935 101.093 24.6789 99.5692 24.7082C99.1424 24.7082 98.8832 24.5614 98.6546 24.2238C97.2369 22.2422 95.8041 20.2753 94.356 18.3084C94.1731 18.0589 94.0206 17.7359 93.5786 17.9121C93.106 17.9121 92.6335 17.9121 92.161 17.9121C91.978 17.8387 91.8866 17.868 91.9171 18.0735C91.9018 20.2606 91.9018 22.4624 91.8866 24.6495C90.469 24.6789 89.0361 24.7082 87.6185 24.7229C87.466 24.5761 87.527 24.3853 87.4813 24.2091C87.5575 23.989 87.5575 23.7541 87.4813 23.5339C87.4965 21.1267 87.5118 18.7194 87.5118 16.3268C87.5118 12.9948 87.4965 9.66277 87.4813 6.31608C87.5422 6.22801 87.5422 6.13994 87.4813 6.05187C87.5118 5.94912 87.527 5.84637 87.4355 5.7583C87.466 5.71426 87.4813 5.6849 87.5118 5.64087C90.7738 5.64087 94.0206 5.64087 97.2827 5.64087C97.4199 5.72894 97.5571 5.74362 97.7095 5.69958C97.8924 5.71426 98.0906 5.74362 98.2735 5.7583C100.667 6.28672 102.359 7.56375 103.121 9.86827C103.151 9.95634 103.167 10.0444 103.197 10.1472C103.151 10.2499 103.167 10.338 103.258 10.4261C103.289 10.6462 103.319 10.8811 103.349 11.1013C103.349 11.5123 103.349 11.9233 103.349 12.3343C103.319 12.5691 103.289 12.7893 103.258 13.0241C102.709 15.2259 101.444 16.8405 99.1119 17.5158C98.7003 17.6332 98.9442 17.824 99.0509 17.9561C99.4015 18.4111 99.7826 18.8515 100.133 19.3065ZM91.9171 11.7471C91.9171 12.5398 91.9171 13.3324 91.9171 14.1397C91.9171 14.3599 91.8561 14.6388 92.2372 14.6241C93.8834 14.5801 95.545 14.8149 97.176 14.4039C98.5021 14.081 99.1119 13.1416 99.0661 11.659C99.0204 10.1618 98.3802 9.31049 96.9931 9.04628C95.423 8.75271 93.8377 8.95821 92.2524 8.89949C91.8866 8.88481 91.9018 9.11967 91.9018 9.35452C91.9171 10.1618 91.9171 10.9545 91.9171 11.7471Z" fill="black"/>
<path d="M51.3088 24.3119C50.6229 24.0037 49.9369 23.7101 49.251 23.4019C49.1443 23.2404 48.9766 23.1523 48.7784 23.123C48.7175 23.0789 48.6717 23.0496 48.6108 23.0055C48.5193 22.8441 48.3821 22.756 48.1992 22.7266C48.1535 22.6826 48.0925 22.6386 48.0468 22.5945C47.8791 22.3597 47.6504 22.1835 47.3913 22.0221C47.3456 21.978 47.2998 21.934 47.2389 21.89C46.9035 21.5083 46.5682 21.1267 46.2328 20.745C46.0651 20.4955 45.8975 20.246 45.7298 19.9964C45.6841 19.835 45.6383 19.6882 45.4859 19.5854C44.9524 18.4699 44.5408 17.325 44.4189 16.092C44.4036 15.9305 44.3884 15.769 44.2207 15.681C44.5561 15.5635 44.2969 15.4608 44.2207 15.3434C44.2512 13.6553 44.7847 12.1141 45.5164 10.6022C45.7145 10.2793 45.9279 9.95637 46.1261 9.63344C46.2328 9.50134 46.3243 9.36923 46.431 9.23712C46.6291 9.10502 46.7663 8.89952 46.873 8.69402C47.0864 8.47384 47.3151 8.26834 47.5285 8.04817C47.6962 7.90138 47.8638 7.7546 48.0315 7.62249L48.062 7.59313C48.2449 7.53442 48.3821 7.43167 48.4736 7.27021C48.9004 7.00599 49.3424 6.74178 49.7692 6.49225C50.1961 6.34546 50.6229 6.21336 51.0039 5.96382C51.2783 5.94914 51.5222 5.87575 51.7509 5.75832C51.9033 5.773 52.0557 5.773 52.1777 5.65557C52.3758 5.67025 52.5588 5.65557 52.7417 5.55282C52.8331 5.53815 52.9246 5.52347 53.0313 5.50879C53.9306 5.50879 54.83 5.50879 55.7294 5.50879C55.8208 5.5675 55.9123 5.59686 56.019 5.55282C56.2019 5.65557 56.3848 5.65557 56.583 5.6409C56.9793 5.83172 57.4214 5.94914 57.8634 6.00786C58.0006 6.05189 58.1225 6.11061 58.2597 6.15464C58.4274 6.31611 58.6256 6.40418 58.8695 6.40418C58.9457 6.43353 59.0219 6.46289 59.0829 6.50693C59.6774 6.90324 60.2718 7.29956 60.8511 7.6812C61.3541 8.18027 61.8571 8.69402 62.3449 9.19309C62.4211 9.29584 62.4974 9.41326 62.5888 9.51601C62.6498 9.58941 62.726 9.67748 62.787 9.75087C62.8327 10.0151 63.1528 10.2206 62.9242 10.5288L62.9699 10.5582L62.9394 10.5288C62.5278 10.6463 62.1468 10.8224 61.8267 11.1013C61.7199 11.1013 61.6132 11.1306 61.5523 11.2334C61.0035 11.4829 60.4395 11.7178 59.8908 11.9967C59.5554 12.1728 59.3877 12.1288 59.1438 11.8205C57.6043 9.82426 55.5312 9.10502 53.0465 9.63344C50.6991 10.1472 48.9461 12.026 48.6565 14.2865C48.3364 16.7378 49.3119 18.646 51.4612 19.9671C53.9764 21.4937 57.4823 20.7597 59.2048 18.3818C59.403 18.1176 59.5249 17.736 59.9975 17.9561C60.3328 18.2204 60.7139 18.3965 61.1255 18.5139C61.5218 18.7928 61.9486 19.013 62.4059 19.1598C62.6803 19.3066 62.9699 19.4533 63.2443 19.5854C63.0614 19.9524 62.8632 20.3047 62.6803 20.6717C62.4821 20.7744 62.3906 20.9652 62.2839 21.1414C62.1772 21.1854 62.101 21.2588 62.0858 21.3762C61.8267 21.567 61.598 21.7872 61.4303 22.0514C61.1559 22.2423 60.8663 22.4184 60.6834 22.6973L60.6987 22.6826C60.4395 22.8588 60.1804 23.0349 59.9212 23.2257C59.4792 23.4606 59.0371 23.7101 58.5951 23.945C58.3359 23.9303 58.1378 24.0477 57.9701 24.1945C57.65 24.2238 57.3299 24.3119 57.0403 24.444C56.9336 24.4 56.8421 24.4293 56.7659 24.5174C56.6287 24.5468 56.4763 24.5761 56.3391 24.6055C56.2324 24.5615 56.1409 24.5761 56.0495 24.6495C55.7598 24.6789 55.4855 24.7082 55.1958 24.7376C54.6318 24.7229 54.0526 24.7229 53.4886 24.7082C53.3057 24.6936 53.1075 24.6642 52.9246 24.6495C52.8484 24.5761 52.7417 24.5615 52.6502 24.6055C52.513 24.5761 52.3606 24.5468 52.2234 24.5174C52.1472 24.444 52.0557 24.4293 51.949 24.4587C51.8576 24.4293 51.7509 24.4 51.6594 24.3706C51.5222 24.2972 51.4155 24.2679 51.3088 24.3119Z" fill="black"/>
<path d="M111.794 24.6931C110.468 24.6931 109.126 24.7078 107.8 24.7078C107.51 24.605 107.541 24.3702 107.541 24.1353C107.541 18.1758 107.541 12.2164 107.541 6.25691C107.541 5.7872 107.678 5.62573 108.181 5.62573C111.367 5.65509 114.553 5.66977 117.739 5.68445C117.83 5.69913 117.937 5.69913 118.028 5.7138C118.166 5.75784 118.287 5.80187 118.425 5.83123C120.787 6.30094 122.342 7.60733 123.028 9.85314C123.089 10.044 123.196 10.2201 123.272 10.4109C123.165 10.6458 123.257 10.866 123.287 11.0861C123.287 11.4091 123.302 11.732 123.302 12.0402C123.302 12.1283 123.287 12.2164 123.287 12.3044C123.287 12.3925 123.272 12.4953 123.272 12.5833C123.226 12.8035 123.196 13.0384 123.15 13.2585C122.601 15.3576 121.26 16.7667 119.141 17.5006C117.098 18.0144 115.025 17.7942 112.968 17.8529C112.663 17.8529 112.358 17.8823 112.053 17.8969C111.733 17.9116 111.87 18.1465 111.87 18.2786C111.855 19.1153 111.885 19.9519 111.855 20.8033C111.84 22.1097 111.961 23.4014 111.794 24.6931ZM111.885 11.7467C111.885 12.5393 111.901 13.3319 111.885 14.1393C111.885 14.4328 111.962 14.6236 112.312 14.609C113.836 14.5649 115.391 14.7411 116.9 14.4475C118.348 14.1686 119.08 13.2585 119.08 11.7613C119.095 10.3082 118.333 9.33939 116.916 9.0605C115.376 8.75225 113.806 8.95775 112.251 8.91371C111.855 8.89903 111.885 9.17793 111.885 9.42746C111.885 10.1907 111.885 10.9687 111.885 11.7467Z" fill="black"/>
<path d="M4.34433 13.3034C4.45103 13.4355 4.60346 13.3915 4.74065 13.3915C7.54541 13.3915 10.3654 13.3768 13.1702 13.3768C13.3531 14.3603 13.1854 15.3731 13.2616 16.3566C13.3074 16.929 13.0939 17.0905 12.4995 17.0758C9.96908 17.0464 7.45395 17.0611 4.92357 17.0758C4.71016 17.0758 4.4053 16.8997 4.28335 17.2519C4.17665 19.351 4.20714 21.45 4.26811 23.549C4.16141 23.7105 4.16141 23.8866 4.26811 24.0481C4.26811 24.1949 4.26811 24.3563 4.26811 24.5031C4.10043 24.5618 3.93276 24.6352 3.76508 24.6939C2.77427 24.6793 1.78346 24.6352 0.792649 24.6646C0.198162 24.6939 0 24.5618 0 23.9307C0.0304865 17.8244 0.0152432 11.7035 0.0152432 5.59723C4.66443 5.58255 9.31362 5.58255 13.9628 5.56787C14.161 5.56787 14.3439 5.58255 14.4811 5.72933C14.4201 6.78619 14.4201 7.85771 14.4811 8.91457C14.4201 8.97328 14.3439 9.01731 14.2829 9.07603C11.0818 9.06135 7.88076 9.06135 4.67968 9.04667C4.37481 9.04667 4.14616 9.09071 4.26811 9.45767C4.16141 9.76592 4.16141 10.0742 4.26811 10.3677C4.20714 11.0723 4.20714 11.7622 4.26811 12.4668C4.20714 12.775 4.08519 13.0539 4.34433 13.3034Z" fill="black"/>
<path d="M21.3102 5.75922C21.2949 9.01784 21.2949 12.2765 21.2797 15.5351C21.2797 18.3534 21.2645 21.1863 21.2949 24.0046C21.2949 24.5917 21.112 24.7238 20.5328 24.7091C19.5725 24.6651 18.5969 24.6651 17.6213 24.7091C17.0421 24.7385 16.9201 24.5477 16.9201 24.0192C16.9354 18.1919 16.9354 12.3645 16.9201 6.5225C16.9201 6.27296 16.9049 6.02343 16.8896 5.77389C18.3835 5.59775 19.8468 5.59775 21.3102 5.75922Z" fill="black"/>
<path d="M58.9148 29.4342C59.4788 30.4911 59.3416 31.2984 58.5184 31.9442V31.9589C58.0611 32.1204 57.6343 31.9149 57.1618 31.7681C57.1618 32.2085 57.1618 32.5901 57.1618 32.9717C56.9789 33.0305 56.8264 33.0011 56.7197 32.8396C56.735 31.6213 56.735 30.4177 56.7502 29.1994C56.8722 29.1847 56.9789 29.1847 57.1008 29.17C57.1465 29.2581 57.1923 29.3462 57.238 29.4342C57.299 29.3902 57.3599 29.3315 57.4362 29.2874C57.4971 29.2728 57.5733 29.2581 57.6343 29.2434C57.802 29.1994 57.9849 29.17 58.1526 29.126C58.427 29.1407 58.6709 29.2728 58.9148 29.4342ZM58.8081 30.5498C58.8081 29.8599 58.5032 29.4342 58.0459 29.4342C57.5124 29.4489 57.1465 29.948 57.1465 30.6525C57.1465 31.2103 57.5429 31.6947 58.0002 31.7094C58.4879 31.7241 58.8233 31.2397 58.8081 30.5498Z" fill="black"/>
<path d="M69.7678 28.1867C69.402 28.7885 68.8075 29.3757 68.7618 29.9922C68.716 30.6233 69.4477 31.1664 69.7526 31.7976C69.7831 31.8563 69.7678 31.9297 69.7678 32.0031C69.6764 32.0178 69.5849 32.0178 69.4934 32.0325C69.0209 31.5921 68.8685 30.9463 68.3654 30.4325C68.0148 30.9756 67.6947 31.4894 67.3594 32.0031C67.2374 32.0031 67.1155 32.0031 67.0088 31.9884C67.0088 31.6508 67.2374 31.3719 67.4356 31.1518C68.152 30.3885 68.1063 29.6692 67.4356 28.9059C67.2679 28.7005 66.8868 28.4656 67.1765 28.0986C67.2527 28.1133 67.3289 28.1133 67.4051 28.128C67.7862 28.5977 67.9844 29.1848 68.4417 29.6105C68.8837 29.1408 69.0209 28.5096 69.5239 28.128C69.5849 28.1427 69.6764 28.172 69.7678 28.1867Z" fill="black"/>
<path d="M86.368 32.0038C85.9869 31.7836 85.865 31.446 85.8802 31.0204C85.8955 30.7121 85.8955 30.3892 85.8802 30.0663C85.865 29.7287 86.0327 29.2883 85.2705 29.303C86.1089 29.2736 85.7278 28.5691 86.0784 28.3489C86.429 28.4663 86.2461 28.7892 86.3528 29.0094C86.3375 29.1268 86.4138 29.1268 86.5052 29.1268C86.7339 29.1268 86.9778 29.1268 87.2064 29.1268C88.2125 29.1709 88.2277 29.1709 88.2125 30.1837C88.2125 30.7855 88.1972 31.402 88.182 32.0038C88.0905 32.0185 87.999 32.0185 87.9076 32.0332C87.8619 31.9451 87.8009 31.8424 87.7552 31.7543C87.7704 31.0938 87.7856 30.4332 87.8009 29.7727C87.8009 29.5672 87.7704 29.4057 87.496 29.4644C87.1607 29.4644 86.8406 29.4644 86.5052 29.4644C86.429 29.4498 86.3375 29.4498 86.3528 29.5672C86.3528 29.7433 86.3528 29.9342 86.3528 30.1103C86.3375 30.4479 86.3223 30.7708 86.307 31.1084C86.307 31.6369 86.5509 31.8424 87.0997 31.6515C87.1302 32.2534 86.6424 31.9304 86.368 32.0038Z" fill="black"/>
<path d="M33.0012 29.1856C33.4128 29.4056 33.5804 29.743 33.5652 30.1831C33.55 30.7845 33.5499 31.3859 33.5347 31.9873C33.0317 32.002 32.5287 32.002 32.0104 32.0167C31.5988 31.8406 31.233 31.6059 31.3702 31.1072C31.5378 30.5058 32.0866 30.4764 32.6049 30.4178C32.803 30.4031 33.1231 30.5204 33.1384 30.1537C33.1536 29.831 33.0469 29.567 32.6963 29.4643C32.4982 29.4056 32.2848 29.4203 32.0714 29.4936C31.9037 29.5523 31.7512 29.6843 31.5074 29.6256C31.4921 29.2883 31.8579 29.3323 32.0104 29.1709C32.361 29.1856 32.6811 29.1856 33.0012 29.1856ZM32.5896 30.7258C32.3 30.7845 31.8427 30.7551 31.797 31.2392C31.7665 31.5766 32.0409 31.738 32.3457 31.7086C32.7421 31.6646 33.1231 31.5179 33.1384 31.0192C33.1536 30.6671 32.8792 30.7405 32.5896 30.7258Z" fill="black"/>
<path d="M48.7788 31.9449C47.8337 31.5926 47.6203 30.8293 47.6355 29.978C47.666 28.9652 48.0776 28.4661 49.0531 28.1285C49.419 28.1138 49.7848 28.1578 50.1506 28.2606C50.2573 28.3927 50.5165 28.4221 50.4555 28.6863C50.3945 28.6863 50.3336 28.7156 50.2726 28.7009C49.3428 28.3046 48.7635 28.378 48.3824 28.9211C47.9099 29.5963 47.9861 30.9174 48.5501 31.4018C49.0684 31.8568 49.6171 31.7687 50.1811 31.4605C50.5317 31.2697 50.6232 31.3431 50.4555 31.6954C49.922 31.9596 49.3885 32.1357 48.7788 31.9449Z" fill="black"/>
<path d="M73.793 31.9864C72.5888 31.3557 72.5126 30.0355 73.6253 29.2287C73.7625 29.1993 73.8845 29.1553 74.0216 29.126C74.1131 29.126 74.2198 29.126 74.3113 29.126C74.4485 29.1553 74.5856 29.1993 74.7076 29.2287C74.86 29.346 75.0277 29.434 75.1344 29.566C75.3173 29.8007 75.485 30.0795 75.3783 30.3875C75.2564 30.7396 74.9058 30.5782 74.6314 30.6075C74.418 30.6369 74.2046 30.5929 73.9912 30.6222C73.7625 30.6515 73.3967 30.4609 73.3357 30.7982C73.2747 31.1356 73.4577 31.4583 73.8235 31.6344C74.2198 31.8251 74.6009 31.7077 74.982 31.561C75.0887 31.517 75.2106 31.429 75.2564 31.5904C75.2716 31.649 75.1801 31.737 75.1344 31.8104C74.7076 32.0158 74.2655 32.0451 73.793 31.9864ZM74.1588 30.3435C74.418 30.1821 74.921 30.5342 74.9362 30.0501C74.9515 29.6687 74.6009 29.4194 74.1588 29.434C73.732 29.4487 73.3662 29.6981 73.3814 30.0648C73.4119 30.5489 73.9149 30.1821 74.1588 30.3435Z" fill="black"/>
<path d="M78.4265 32.0158C77.1004 31.6344 77.1156 29.6394 78.2893 29.1847C78.518 29.17 78.7619 29.1553 78.9905 29.126C79.2497 29.2287 79.524 29.302 79.707 29.5367C79.9051 29.8007 80.0576 30.1088 79.9204 30.4168C79.7984 30.7102 79.4631 30.5782 79.2192 30.5929C78.9905 30.6075 78.7466 30.5782 78.518 30.5929C78.3046 30.6222 77.9845 30.4462 77.9235 30.7542C77.8625 31.0476 77.9997 31.341 78.2741 31.517C78.6857 31.8104 79.1125 31.7077 79.5393 31.5317C79.6308 31.4877 79.7679 31.3997 79.8137 31.5463C79.8442 31.6197 79.7222 31.737 79.6612 31.8251C79.2497 31.9571 78.8533 32.0451 78.4265 32.0158ZM77.893 30.1235C77.9235 30.1675 77.954 30.2702 77.9997 30.2702C78.4723 30.3435 78.9296 30.3435 79.4021 30.2702C79.5088 30.2555 79.5393 30.1381 79.524 30.0501C79.4173 29.6394 79.143 29.4194 78.7162 29.434C78.2741 29.4634 78.0302 29.7274 77.893 30.1235Z" fill="black"/>
<path d="M43.0929 29.126C43.7636 29.2433 44.038 29.6247 44.0075 30.2702C43.9923 30.7249 43.9923 31.165 44.0075 31.6197C44.0075 31.8397 43.9923 32.0304 43.6874 32.0158C43.413 31.4583 43.2301 32.0891 43.0015 32.0598C42.9557 32.0598 42.8948 32.0451 42.849 32.0451C42.3308 32.0011 41.8125 31.9131 41.8125 31.2676C41.8125 30.6369 42.346 30.5489 42.849 30.4462C43.1539 30.3875 43.7179 30.6222 43.5655 29.9621C43.4283 29.39 43.0015 29.3753 42.5137 29.522C42.407 29.5514 42.3003 29.6394 42.1936 29.6394C41.7058 29.6394 42.1174 29.4487 42.1326 29.3313C42.4375 29.258 42.7576 29.1847 43.0929 29.126ZM43.0624 30.7249C42.7576 30.7836 42.285 30.7102 42.2393 31.2676C42.2241 31.561 42.4527 31.737 42.7271 31.7224C43.1387 31.693 43.5197 31.5464 43.5807 31.0769C43.6417 30.7396 43.3978 30.6956 43.0624 30.7249Z" fill="black"/>
<path d="M94.5086 31.9871C94.4933 31.415 94.4781 30.8576 94.4629 30.2855C94.4476 29.8601 94.3562 29.3907 93.7922 29.4494C93.3196 29.5081 92.9538 29.8015 92.9385 30.3589C92.9385 30.9016 93.0147 31.4444 92.8928 31.9871C92.7404 31.9871 92.6032 31.9871 92.5117 31.8551C92.5117 30.975 92.5117 30.0948 92.527 29.2147C92.6489 29.1854 92.7709 29.1707 92.8928 29.1414C92.9538 29.2587 92.908 29.5961 93.2129 29.3174C93.6855 29.0974 94.1427 29.0533 94.6 29.3614C95.1183 30.0508 94.783 30.8576 94.9354 31.5911C94.8744 31.8258 94.8592 32.0605 94.5086 31.9871Z" fill="black"/>
<path d="M84.3716 29.2146C84.7222 29.4199 84.8898 29.728 84.8441 30.124C84.7679 30.7548 85.0423 31.4149 84.6764 32.0163C84.6307 32.0017 84.585 31.987 84.5392 31.987C84.4478 31.5469 84.2496 31.8843 84.0972 31.9283C83.8685 31.9576 83.6399 31.987 83.4112 32.0163C82.9692 31.855 82.5576 31.6496 82.6948 31.1068C82.8472 30.4908 83.4265 30.4908 83.9295 30.4174C84.1277 30.3881 84.4325 30.5201 84.4325 30.1387C84.4325 29.816 84.3411 29.5519 83.9905 29.4639C83.7771 29.4052 83.5789 29.4346 83.3655 29.5079C83.1978 29.5666 83.0454 29.7133 82.8472 29.6546C82.771 29.3906 83.0454 29.3906 83.1521 29.2732C83.5484 29.1412 83.96 29.0825 84.3716 29.2146ZM83.9143 30.7108C83.5789 30.7988 83.1216 30.7401 83.1064 31.2682C83.1064 31.6203 83.3808 31.7523 83.6856 31.7083C84.0667 31.6496 84.4173 31.5029 84.4173 31.0335C84.4325 30.6668 84.1582 30.7401 83.9143 30.7108Z" fill="black"/>
<path d="M91.2 29.3023C91.5049 29.625 91.7488 29.9624 91.7792 30.4318C91.8097 31.1946 91.4896 31.7374 90.8494 31.928C90.2244 32.1187 89.6757 32.0161 89.2794 31.488C88.9135 31.0186 88.9592 30.0944 89.3403 29.6397C89.4775 29.493 89.6604 29.3757 89.8129 29.2436C90.2854 29.0823 90.7427 29.1263 91.2 29.3023ZM89.4775 30.5932C89.4775 31.3266 89.8129 31.7374 90.4074 31.7227C90.9866 31.708 91.3372 31.2679 91.322 30.5638C91.3067 29.8597 90.9561 29.4197 90.3769 29.4343C89.7976 29.449 89.4775 29.8744 89.4775 30.5932Z" fill="black"/>
<path d="M51.6133 31.87C50.6835 30.8872 50.8054 29.831 51.9487 29.1856C52.2535 29.1856 52.5584 29.1709 52.848 29.1709C53.8541 29.7283 54.0218 30.5204 53.3968 31.6353C52.8633 32.1194 52.2535 32.09 51.6133 31.87ZM53.3206 30.5791C53.3206 29.8603 52.9852 29.4349 52.406 29.4349C51.842 29.4349 51.4761 29.875 51.4761 30.5791C51.4761 31.2979 51.8115 31.7086 52.406 31.7233C52.9547 31.7233 53.3053 31.2979 53.3206 30.5791Z" fill="black"/>
<path d="M29.6024 29.126C30.2579 29.214 30.5323 29.6247 30.5628 30.2115C30.5932 30.6809 30.578 31.165 30.578 31.649C30.578 31.7957 30.5932 32.0011 30.3493 32.0011C30.1055 31.9864 30.1512 31.7811 30.1512 31.6344C30.1359 31.1796 30.1664 30.7249 30.1359 30.2702C30.1207 29.8594 29.9988 29.434 29.4805 29.478C29.0232 29.522 28.6421 29.8007 28.6421 30.3288C28.6421 30.8569 28.6573 31.3703 28.6573 31.8984C28.5964 32.0451 28.4592 32.0304 28.322 32.0451C28.0933 31.209 28.2763 30.3435 28.2153 29.4927C28.2 29.3607 28.2305 29.214 28.4135 29.1847C28.6421 29.1406 28.5659 29.3607 28.6421 29.434C28.764 29.5514 28.825 29.4194 28.886 29.3313C29.1451 29.2433 29.3738 29.1847 29.6024 29.126Z" fill="black"/>
<path d="M36.4615 31.9723C36.4615 31.4148 36.4462 30.8428 36.4462 30.2853C36.4462 29.8746 36.3547 29.4492 35.8365 29.4639C35.3335 29.4785 34.9676 29.7719 34.9676 30.3293C34.9676 30.8721 34.9676 31.4148 34.9676 31.9576C34.8304 31.9723 34.7085 31.9869 34.5713 32.0016C34.5713 31.0481 34.5713 30.1093 34.5713 29.1558C34.6627 29.1412 34.7542 29.1412 34.8457 29.1265C34.9676 29.6252 35.2115 29.3318 35.4249 29.1998C35.5164 29.1705 35.6078 29.1412 35.6993 29.1118C35.7908 29.1118 35.8975 29.1118 35.9889 29.1118C36.0804 29.1265 36.1718 29.1558 36.2633 29.1705C36.6901 29.4052 36.873 29.7719 36.8578 30.2413C36.8425 30.8281 36.8273 31.4148 36.812 31.9869C36.7663 31.9869 36.7358 31.9869 36.6901 32.0163C36.6291 32.0163 36.5377 31.9869 36.4615 31.9723Z" fill="black"/>
<path d="M25.8978 28.1133C26.035 28.2307 26.0807 28.3482 25.8673 28.3922C25.6692 28.4362 25.4405 28.4362 25.2423 28.4069C24.5412 28.3041 24.3735 28.5537 24.3582 29.2436C24.3278 30.227 24.9985 29.8601 25.471 29.9188C25.6234 29.9334 25.8368 29.8454 25.8826 30.0362C25.9283 30.227 25.6996 30.183 25.5929 30.227C25.2728 30.227 24.968 30.227 24.6479 30.227C24.2058 30.2123 24.4345 30.5353 24.3887 30.7114C24.2973 31.1371 24.5564 31.6068 24.221 32.0031C24.1753 32.0031 24.1296 32.0031 24.0839 31.9884C23.8247 31.2545 23.9772 30.5059 23.9772 29.772C23.9772 29.2142 23.8247 28.6417 24.0991 28.0986C24.6936 28.128 25.3033 28.128 25.8978 28.1133Z" fill="black"/>
<path d="M62.3752 29.1702C62.3905 29.5222 62.4057 29.8743 62.4057 30.241C62.4057 30.417 62.4057 30.6077 62.4057 30.7838C62.3905 31.1798 62.36 31.5906 62.3448 31.9866C62.1923 31.9866 62.0399 32.06 61.9637 31.8399C61.857 31.5612 61.7655 31.7813 61.6741 31.8839C61.3844 31.9279 61.1101 31.9866 60.8204 32.0306C60.2564 31.8253 60.043 31.4145 60.0583 30.8571C60.0735 30.4024 60.0583 29.9476 60.0583 29.4929C60.0583 29.3756 60.0125 29.1849 60.2107 29.1702C60.4546 29.1555 60.4394 29.3609 60.4394 29.5076C60.4546 29.977 60.4241 30.4611 60.4546 30.9305C60.4698 31.3119 60.5765 31.7226 61.0796 31.6786C61.5521 31.6492 61.9179 31.3852 61.9484 30.8571C61.9637 30.285 61.9637 29.7276 61.9637 29.1555C62.1161 29.1702 62.2381 29.1702 62.3752 29.1702Z" fill="black"/>
<path d="M63.1373 31.4883C63.4269 31.5616 63.7166 31.679 64.0062 31.7083C64.2806 31.7377 64.5397 31.635 64.6312 31.3709C64.7226 31.0776 64.5397 30.9015 64.2653 30.7988C64.1586 30.7548 64.0519 30.7108 63.9452 30.6668C63.6251 30.5201 63.2897 30.3734 63.2288 29.9921C63.1678 29.552 63.4879 29.3466 63.808 29.1559C64.1281 29.1266 64.4482 29.1266 64.7531 29.2586C64.8141 29.3173 64.875 29.3613 64.936 29.42C64.936 29.5373 64.9208 29.64 64.7988 29.684C64.6616 29.6107 64.5245 29.508 64.372 29.464C64.0824 29.3906 63.7928 29.42 63.6708 29.728C63.5641 30.0214 63.7775 30.1827 64.0214 30.3001C64.0976 30.3441 64.1891 30.3734 64.2806 30.4028C64.6616 30.5641 65.1037 30.6815 65.0732 31.2242C65.0427 31.7377 64.6311 31.8697 64.2348 32.0164C64.0976 32.0164 63.9452 32.0164 63.808 32.0164C63.5794 31.9137 63.3507 31.8257 63.1221 31.723C63.1221 31.6496 63.1373 31.5616 63.1373 31.4883Z" fill="black"/>
<path d="M38.2912 31.9131C37.4528 31.1796 37.4223 30.2702 38.1997 29.258C38.2455 29.2433 38.2912 29.2433 38.3369 29.2287C38.4589 29.1993 38.5656 29.1553 38.6875 29.126C38.8247 29.126 38.9771 29.126 39.1143 29.126C39.3887 29.258 39.7698 29.2727 39.8155 29.6687C39.7393 29.6981 39.6936 29.7274 39.6631 29.7127C39.221 29.4927 38.779 29.1993 38.3369 29.6834C38.032 30.0208 37.9863 30.9743 38.2912 31.3703C38.596 31.7811 38.9771 31.7811 39.4192 31.5463C39.5411 31.4877 39.6783 31.253 39.8155 31.4877C39.8917 31.6197 39.7088 31.7224 39.6478 31.8251C39.1905 32.0011 38.7485 32.0891 38.2912 31.9131Z" fill="black"/>
<path d="M71.1864 32.0313C70.5462 31.87 70.2261 31.4593 70.1651 30.8285C70.1042 30.095 70.3176 29.5083 71.0492 29.1709C71.3236 29.1856 71.6132 29.2002 71.8876 29.2002C72.04 29.3616 72.3906 29.3909 72.2992 29.7283C72.2534 29.743 72.1925 29.7723 72.162 29.7577C71.7352 29.4936 71.3084 29.2149 70.8511 29.699C70.5157 30.0364 70.5005 31.0779 70.8206 31.4299C71.1864 31.8406 71.598 31.782 72.0096 31.5179C72.101 31.4593 72.223 31.3419 72.3144 31.4739C72.4059 31.6206 72.2382 31.7086 72.1772 31.826C71.8571 31.958 71.537 32.0167 71.1864 32.0313Z" fill="black"/>
<path d="M54.5096 31.5906C54.5706 31.0478 54.5706 30.5197 54.5096 29.977C54.5096 29.9036 54.5096 29.8303 54.4944 29.7569C54.5248 29.5516 54.5553 29.3609 54.6011 29.1555C54.723 29.1849 54.8449 29.2142 54.9669 29.2435C55.1955 29.6103 55.287 29.1849 55.4394 29.1702C55.6681 29.1849 55.8967 29.1849 56.1254 29.1995C56.1254 29.3609 56.1864 29.5076 55.8967 29.4929C55.2108 29.4342 55.0126 29.889 54.9669 30.417C54.9364 30.9305 54.9669 31.4439 54.9669 31.972C54.8907 32.0013 54.7992 32.0306 54.723 32.06C54.5401 32.0013 54.5858 31.7959 54.4639 31.6932C54.4944 31.6346 54.5096 31.6199 54.5096 31.5906Z" fill="black"/>
<path d="M44.9825 31.9889C44.9673 30.7266 44.9673 29.4496 44.9673 28.1872C44.9673 28.0258 44.9063 27.7762 45.1959 27.7909C45.4855 27.8056 45.3788 28.0698 45.3788 28.2166C45.3941 29.4349 45.3941 30.6532 45.4093 31.8862C45.3026 32.0623 45.1349 32.0036 44.9825 31.9889Z" fill="black"/>
<path d="M76.2923 32.0182C76.0637 30.6825 76.2314 29.3467 76.2009 28.011C76.2009 27.8936 76.2618 27.7908 76.399 27.7761C76.5515 27.7761 76.582 27.8789 76.582 27.9963C76.582 29.288 76.5667 30.5797 76.5515 31.8861C76.5515 31.9301 76.46 31.9742 76.4143 32.0329C76.3838 32.0329 76.3381 32.0182 76.2923 32.0182Z" fill="black"/>
<path d="M40.562 31.958C40.562 31.1805 40.5468 30.4178 40.562 29.6403C40.562 29.4643 40.4553 29.1709 40.7907 29.1709C41.0803 29.1709 40.9736 29.4496 40.9736 29.5963C40.9736 30.3884 40.9584 31.1805 40.9584 31.9727C40.8212 31.9727 40.684 31.9727 40.562 31.958Z" fill="black"/>
<path d="M82.2376 29.1553C82.3138 29.3167 82.3596 29.4487 82.0852 29.4634C81.3992 29.4927 81.1858 29.9328 81.1706 30.5195C81.1554 30.9303 81.1706 31.341 81.1554 31.7517C81.1554 31.8544 81.1401 31.9864 80.9877 31.9864C80.9267 31.9864 80.82 31.9277 80.82 31.8984C80.8505 30.9743 80.5304 30.0355 80.9724 29.126C81.0182 29.1406 81.0639 29.1406 81.1096 29.1553C81.1249 29.258 81.1554 29.3753 81.1706 29.478C81.2925 29.39 81.4297 29.2873 81.5517 29.1993C81.7956 29.1847 82.0242 29.17 82.2376 29.1553Z" fill="black"/>
<path d="M27.0569 32.0315C26.6454 31.7381 26.8893 31.3274 26.8588 30.9607C26.813 30.4913 26.8435 30.0072 26.8588 29.5378C26.8588 29.3911 26.8283 29.1711 27.0569 29.1858C27.2856 29.2004 27.2399 29.4058 27.2399 29.5525C27.2246 30.3593 27.2094 31.1807 27.1941 31.9875C27.1484 31.9875 27.1027 32.0022 27.0569 32.0315Z" fill="black"/>
<path d="M131.275 4.24643C131.534 4.89228 132.052 5.37667 132.449 5.91978C133.394 7.24084 134.4 8.53254 135.375 9.82425C135.604 10.1325 135.772 10.3674 136.122 9.86828C137.174 8.38576 138.287 6.94727 139.369 5.47942C140.009 4.61339 139.979 4.45193 139.049 3.87947C138.988 3.83543 138.912 3.82075 138.866 3.77672C138.683 3.60058 138.332 3.52718 138.378 3.24829C138.409 2.94005 138.79 2.98408 139.018 2.91069C141.229 2.19144 143.454 1.50156 145.664 0.782311C146.015 0.664883 146.152 0.752954 146.152 1.10524C146.106 3.49783 146.076 5.89042 146.03 8.26833C146.03 8.67933 145.832 8.67933 145.542 8.47383C145.482 8.42979 145.436 8.38576 145.375 8.34172C144.018 7.44634 144.018 7.44634 143.058 8.7674C141.793 10.5141 140.527 12.2462 139.278 14.0076C139.003 14.4039 138.698 14.5948 138.18 14.5948C136.503 14.5654 134.826 14.5801 133.15 14.5948C132.738 14.5948 132.464 14.492 132.205 14.1397C129.933 11.0279 127.647 7.93073 125.36 4.83357C124.461 3.61526 123.592 2.38226 122.693 1.14927C122.601 1.01717 122.418 0.914417 122.495 0.738275C122.586 0.547455 122.784 0.635526 122.937 0.635526C124.553 0.635526 126.138 0.635526 127.708 0.620847C128.119 0.620847 128.379 0.767632 128.653 1.09056C129.537 2.11805 130.269 3.24829 131.244 4.21707H131.29L131.275 4.24643Z" fill="black"/>
<path d="M145.253 29.4198C144.598 29.6253 143.897 29.5372 143.226 29.684C142.296 29.8895 141.869 29.273 141.427 28.6712C139.415 26.0291 137.388 23.3869 135.36 20.7448C134.812 20.0256 134.796 20.0402 134.248 20.7742C132.982 22.4475 131.733 24.1062 130.467 25.7648C130.162 26.1612 129.766 26.5428 129.217 26.1465C128.699 25.7648 128.897 25.3245 129.217 24.8988C129.37 24.6933 129.492 24.4731 129.629 24.2676C129.919 23.8126 129.675 23.4603 129.339 23.1961C128.989 22.9172 128.608 22.9759 128.257 23.2695C127.495 23.93 127.022 24.8254 126.397 25.5887C126.138 25.9116 125.894 26.2492 125.65 26.5868C125.361 26.9832 124.934 27.2033 124.492 26.9244C124.035 26.6309 124.126 26.1465 124.385 25.7648C124.888 25.0016 125.437 24.253 126.001 23.5337C127.815 21.1998 129.507 18.8072 131.229 16.4147C131.534 15.9743 131.87 15.7835 132.449 15.7835C134.08 15.8128 135.711 15.8128 137.342 15.7688C137.937 15.7541 138.302 15.9596 138.622 16.4147C139.629 17.8091 140.65 19.1889 141.686 20.554C141.763 20.6567 141.885 20.7448 141.991 20.8329C142.921 22.3594 144.034 23.7539 145.101 25.1777C145.726 26.0144 146.214 26.9244 146.778 27.8052C146.93 28.04 146.808 28.3483 146.625 28.3923C145.954 28.5097 145.711 29.0675 145.253 29.4198Z" fill="black"/>
</svg>
